<svg width="10" height="13" viewBox="0 0 10 13" fill="none" xmlns="http://www.w3.org/2000/svg">
<path d="M9.90119 5.68367C9.90119 5.02781 9.77343 4.37837 9.5252 3.77244C9.27697 3.16651 8.91314 2.61594 8.45447 2.15218C7.99581 1.68842 7.45129 1.32054 6.85202 1.06956C6.25274 0.818573 5.61044 0.689392 4.96179 0.689392C4.31314 0.689392 3.67084 0.818573 3.07157 1.06956C2.47229 1.32054 1.92778 1.68842 1.46911 2.15218C1.01045 2.61594 0.646617 3.16651 0.398389 3.77244C0.150161 4.37837 0.0223999 5.02781 0.0223999 5.68367C0.0223999 6.67325 0.311707 7.59362 0.802119 8.36987H0.796474C2.46176 11.0061 4.96179 12.7635 4.96179 12.7635L9.12711 8.36987H9.12217C9.63052 7.5682 9.90087 6.63596 9.90119 5.68367ZM4.96179 7.82407C4.40036 7.82407 3.86192 7.59857 3.46493 7.19716C3.06794 6.79576 2.84491 6.25134 2.84491 5.68367C2.84491 5.116 3.06794 4.57158 3.46493 4.17017C3.86192 3.76877 4.40036 3.54326 4.96179 3.54326C5.52323 3.54326 6.06166 3.76877 6.45866 4.17017C6.85565 4.57158 7.07868 5.116 7.07868 5.68367C7.07868 6.25134 6.85565 6.79576 6.45866 7.19716C6.06166 7.59857 5.52323 7.82407 4.96179 7.82407Z" fill="#2D3134"/>
</svg>
