<svg width="22" height="22" viewBox="0 0 22 22" fill="none" xmlns="http://www.w3.org/2000/svg">
<path d="M11.0002 6.90942C10.3409 6.92296 9.7084 7.17297 9.21802 7.61386C8.72764 8.05475 8.41202 8.65718 8.32869 9.31133C8.24536 9.96549 8.39987 10.6278 8.76405 11.1776C9.12823 11.7273 9.67783 12.1279 10.3127 12.3063V19.9719C10.3127 20.1543 10.3851 20.3291 10.514 20.4581C10.643 20.587 10.8178 20.6594 11.0002 20.6594C11.1825 20.6594 11.3574 20.587 11.4863 20.4581C11.6152 20.3291 11.6877 20.1543 11.6877 19.9719V12.3063C12.3225 12.1279 12.8721 11.7273 13.2363 11.1776C13.6005 10.6278 13.755 9.96549 13.6717 9.31133C13.5883 8.65718 13.2727 8.05475 12.7823 7.61386C12.292 7.17297 11.6595 6.92296 11.0002 6.90942V6.90942Z" fill="#F66F4D"/>
<path d="M15.9498 3.95316C15.8106 3.85964 15.6419 3.82028 15.4756 3.84247C15.3093 3.86467 15.1569 3.94689 15.047 4.07366C14.9372 4.20043 14.8774 4.363 14.8791 4.53074C14.8808 4.69849 14.9437 4.85984 15.0561 4.98441C15.726 5.56524 16.2633 6.28327 16.6315 7.08986C16.9997 7.89645 17.1902 8.77275 17.1902 9.65941C17.1902 10.5461 16.9997 11.4224 16.6315 12.229C16.2633 13.0355 15.726 13.7536 15.0561 14.3344C14.9752 14.3887 14.9068 14.4595 14.8554 14.5423C14.804 14.625 14.7707 14.7177 14.7579 14.8142C14.745 14.9108 14.7527 15.0089 14.7807 15.1022C14.8086 15.1955 14.856 15.2818 14.9198 15.3554C14.9836 15.429 15.0623 15.4882 15.1507 15.5291C15.239 15.57 15.3351 15.5917 15.4325 15.5926C15.5299 15.5936 15.6264 15.5739 15.7156 15.5347C15.8047 15.4956 15.8846 15.438 15.9498 15.3657C16.766 14.6558 17.4205 13.7791 17.8689 12.7947C18.3174 11.8103 18.5494 10.7411 18.5494 9.65941C18.5494 8.57768 18.3174 7.50854 17.8689 6.52415C17.4205 5.53976 16.766 4.66304 15.9498 3.95316V3.95316ZM4.81232 9.65941C4.81196 8.77297 5.00206 7.89681 5.36977 7.09024C5.73747 6.28366 6.27418 5.56551 6.94357 4.98441C7.05593 4.85984 7.11887 4.69849 7.12053 4.53074C7.1222 4.363 7.06247 4.20043 6.9526 4.07366C6.84274 3.94689 6.69031 3.86467 6.52403 3.84247C6.35775 3.82028 6.18909 3.85964 6.04982 3.95316C5.23361 4.66304 4.57918 5.53976 4.13072 6.52415C3.68226 7.50854 3.4502 8.57768 3.4502 9.65941C3.4502 10.7411 3.68226 11.8103 4.13072 12.7947C4.57918 13.7791 5.23361 14.6558 6.04982 15.3657C6.18909 15.4592 6.35775 15.4985 6.52403 15.4763C6.69031 15.4541 6.84274 15.3719 6.9526 15.2452C7.06247 15.1184 7.1222 14.9558 7.12053 14.7881C7.11887 14.6203 7.05593 14.459 6.94357 14.3344C6.27418 13.7533 5.73747 13.0351 5.36977 12.2286C5.00206 11.422 4.81196 10.5458 4.81232 9.65941V9.65941Z" fill="#F66F4D"/>
<path d="M18.3908 1.51255C18.3231 1.45161 18.244 1.4046 18.1581 1.37421C18.0722 1.34382 17.9812 1.33064 17.8902 1.33543C17.7993 1.34022 17.7101 1.36288 17.6279 1.40212C17.5457 1.44135 17.472 1.4964 17.4111 1.56411C17.3501 1.63183 17.3031 1.71088 17.2727 1.79676C17.2424 1.88264 17.2292 1.97366 17.234 2.06464C17.2388 2.15561 17.2614 2.24475 17.3006 2.32696C17.3399 2.40918 17.3949 2.48286 17.4626 2.5438C18.4529 3.44582 19.244 4.54461 19.7853 5.76988C20.3266 6.99515 20.6062 8.31991 20.6062 9.65943C20.6062 10.9989 20.3266 12.3237 19.7853 13.549C19.244 14.7742 18.4529 15.873 17.4626 16.7751C17.3949 16.836 17.3399 16.9097 17.3006 16.9919C17.2614 17.0741 17.2388 17.1632 17.234 17.2542C17.2292 17.3452 17.2424 17.4362 17.2727 17.5221C17.3031 17.608 17.3501 17.687 17.4111 17.7547C17.472 17.8225 17.5457 17.8775 17.6279 17.9167C17.7101 17.956 17.7993 17.9786 17.8902 17.9834C17.9812 17.9882 18.0722 17.975 18.1581 17.9446C18.244 17.9143 18.3231 17.8672 18.3908 17.8063C19.5217 16.7755 20.4252 15.52 21.0433 14.1201C21.6615 12.7203 21.9808 11.2069 21.9808 9.67661C21.9808 8.14636 21.6615 6.63293 21.0433 5.23308C20.4252 3.83324 19.5217 2.57777 18.3908 1.54693V1.51255ZM1.37515 9.65943C1.37965 8.31884 1.66316 6.99387 2.20762 5.76882C2.75209 4.54378 3.54559 3.44547 4.53765 2.5438C4.6744 2.42072 4.75666 2.24836 4.76633 2.06464C4.776 1.88091 4.71229 1.70087 4.58921 1.56411C4.46614 1.42736 4.29377 1.3451 4.11005 1.33543C3.92632 1.32576 3.74628 1.38947 3.60952 1.51255C2.47857 2.54339 1.57513 3.79886 0.956975 5.19871C0.338816 6.59856 0.0195312 8.11198 0.0195312 9.64224C0.0195312 11.1725 0.338816 12.6859 0.956975 14.0858C1.57513 15.4856 2.47857 16.7411 3.60952 17.7719C3.67724 17.8329 3.75629 17.8799 3.84217 17.9103C3.92805 17.9407 4.01908 17.9538 4.11005 17.949C4.20102 17.9443 4.29016 17.9216 4.37237 17.8824C4.45459 17.8431 4.52827 17.7881 4.58921 17.7204C4.65015 17.6527 4.69716 17.5736 4.72755 17.4877C4.75794 17.4018 4.77112 17.3108 4.76633 17.2198C4.76154 17.1289 4.73888 17.0397 4.69965 16.9575C4.66041 16.8753 4.60536 16.8016 4.53765 16.7407C3.54985 15.8429 2.75884 14.7502 2.21452 13.5314C1.67021 12.3126 1.38441 10.9942 1.37515 9.65943V9.65943Z" fill="#F66F4D"/>
</svg>
