<svg width="62" height="62" viewBox="0 0 62 62" fill="none" xmlns="http://www.w3.org/2000/svg">
<g opacity="0.1" clip-path="url(#clip0_2_262)">
<path d="M39.074 43.001L42.1932 49.5309M49.4456 31.4706C47.6545 36.5376 43.9239 40.6855 39.0745 43.0019C34.2251 45.3183 28.6542 45.6134 23.5872 43.8223C18.5202 42.0312 14.3723 38.3006 12.0559 33.4512C9.73951 28.6018 9.4444 23.0309 11.2355 17.9639L49.4456 31.4706ZM9.11272 17.2135L16.7354 19.9081L9.11272 17.2135ZM51.5683 32.221L43.9456 29.5265L51.5683 32.221ZM34.3573 53.2738L50.029 45.7879L34.3573 53.2738Z" stroke="black" stroke-width="2" stroke-miterlimit="10" stroke-linecap="round" stroke-linejoin="round"/>
<path d="M36.5787 37.777C43.7914 34.3318 46.8456 25.6918 43.4003 18.479C39.955 11.2663 31.315 8.21219 24.1023 11.6575C16.8895 15.1027 13.8354 23.7428 17.2807 30.9555C20.726 38.1682 29.366 41.2223 36.5787 37.777Z" stroke="black" stroke-width="2" stroke-miterlimit="10" stroke-linecap="round" stroke-linejoin="round"/>
</g>
<defs>
<clipPath id="clip0_2_262">
<rect width="46.3142" height="46.3142" fill="white" transform="translate(0 19.9624) rotate(-25.5323)"/>
</clipPath>
</defs>
</svg>
